# xmcd CD database file generated by OrangeCD 5.1
#
# Track frame offsets:
#	150
#	26876
#	40094
#
# Disc length: 773 seconds
#
# Revision: 3
# Processed by: cddbd v1.5PL3 Copyright (c) Steve Scherf et al.
# Submitted via: OrangeCD 5.1
#
DISCID=1e030303
DTITLE=Doves - Caught By The River
DYEAR=2002
DGENRE=Indie
TTITLE0=Caught By The River
TTITLE1=Hit The Ground Running
TTITLE2=Willow's Song
EXTD=
EXTT0=
EXTT1=
EXTT2=
PLAYORDER=
